<svg width="1258" height="5183" viewBox="0 0 1258 5183" fill="none" xmlns="http://www.w3.org/2000/svg">
<path d="M265 2C265 27.5522 262.024 55.3869 270 80C274.203 92.9706 282.144 107.301 290.556 117.944C300 129.894 306.698 143.133 319.333 152.111C334.637 162.985 352.986 169.965 370.222 177.222C384.583 183.269 398.559 190.581 413 196.222C420.415 199.119 427.472 202.781 434.722 206.056C446.859 211.537 459.524 215.782 471.5 221.611C494.499 232.805 518.676 240.813 541.222 253C558.939 262.576 579.505 267.138 598 275.222C619.673 284.695 640.46 296.259 662.278 305.333C679.864 312.648 698.794 320.164 714.556 331C728.018 340.255 741.305 348.024 752.556 360.222C775.631 385.241 797.117 416.074 809.389 447.889C817.021 467.676 822 487.278 822 508.444C822 520.246 821.863 530.365 817.444 541.5C811.724 555.917 803.616 568.82 797 582.778C780.657 617.254 754.489 645.719 726.111 670.944C721.397 675.135 716.484 678.303 711.333 681.889C700.674 689.311 692.212 699.35 682 707.333C659.801 724.687 635.003 737.546 611.444 752.778C592.461 765.052 575.202 778.99 553.167 785C544.811 787.279 537.835 791.861 530.333 796.056C519.278 802.237 508.023 808.062 497.111 814.5C480.685 824.191 463.951 833.205 447.667 843.111C438.398 848.749 428.103 852.252 419.278 858.556C406.401 867.753 390.486 872.462 376.222 879C359.893 886.484 343.035 892.98 326.111 899C311.033 904.363 296.937 909.629 282.944 917.5C271.299 924.051 261.341 937.332 248 940" stroke="black" stroke-width="3" stroke-linecap="round"/>
<path d="M251 939C240.857 945.224 228.095 948.522 220.778 958.667C209.154 974.782 204.366 991.906 205.056 1011.56C205.589 1026.76 211.174 1042.65 217.222 1056.44C223.662 1071.14 233.685 1087.58 245.444 1098.67C270.689 1122.47 300.454 1138.12 330 1156.06C350.239 1168.34 369.004 1182.79 390.556 1192.78C406.693 1200.25 422.374 1208.75 438.889 1215.39C450.47 1220.04 462.362 1223.84 473.944 1228.5C484.755 1232.85 495.473 1237.84 506.778 1240.78C525.198 1245.57 545.072 1254.63 561.222 1264.72C576.951 1274.55 593.847 1281.32 610.222 1290C628.232 1299.54 649.04 1308.39 664.111 1322.33C679.497 1336.57 696.42 1351.07 709.5 1367.5C723.8 1385.47 737.432 1403.81 749.278 1423.56C755.528 1433.97 758.603 1448.88 768.889 1456.28C774.018 1459.96 780.834 1459 786.778 1459C795.185 1459 803.593 1459 812 1459" stroke="black" stroke-width="3" stroke-linecap="round"/>
<path d="M811 1460C830.766 1458.6 849.734 1465.42 868.556 1470.61C890.937 1476.79 915.524 1480.67 936.667 1490.67C949.619 1496.79 960.628 1507.49 970.222 1517.89C979.28 1527.71 987.762 1538.57 990.944 1551.78C994.658 1567.19 994.116 1583.26 994 1599C993.865 1617.33 991.597 1633.93 983.778 1650.67C980.16 1658.41 976.411 1666.47 971.778 1673.67C963.435 1686.63 950.88 1696.5 938.556 1705.44C901.928 1732.01 860.258 1753 817.111 1766.56C772.981 1780.42 726.38 1788.76 680.556 1794.72C640.687 1799.91 603.001 1798.63 564 1788C539.701 1781.38 515.894 1772.77 492.389 1763.78C471.793 1755.9 450.805 1747.83 432.111 1735.94C404.032 1718.09 385.613 1690.29 372.056 1660.44C351.821 1615.9 344.27 1568 341.889 1519.44C339.802 1476.89 343.974 1437.01 363.667 1398.67C373.129 1380.24 386.926 1366 403.222 1353.5C425.782 1336.19 450.171 1321.83 478.556 1316.94C512.121 1311.16 548.35 1312.56 582.333 1313C617.761 1313.46 652.438 1323.91 685.833 1335C712.665 1343.91 737.971 1354.84 762.889 1368.11C785.452 1380.13 796.792 1398.12 800.111 1423.78C804.099 1454.6 801.887 1485.67 791.278 1514.94C781.928 1540.74 765.236 1561.74 750 1584.22C735.259 1605.97 720.222 1626.86 697 1640.28C666.518 1657.89 629.04 1660.59 594.778 1655.72C574.782 1652.88 555.031 1647.55 535.778 1641.56C509.058 1633.24 482.329 1623.01 458.889 1607.44C417.362 1579.86 401.785 1528.37 393.667 1481.5C390.155 1461.23 388.023 1439.56 396.778 1420.11C409.089 1392.76 436.576 1371.78 461.778 1357.22C490.211 1340.8 523.12 1330.63 555.778 1327.44C587.025 1324.39 618.725 1329.18 641 1353.56C662.785 1377.39 672.823 1410.23 679.5 1440.94C689.989 1489.19 692.266 1539.88 692.833 1589.11C693.136 1615.38 695.6 1648.59 677.889 1670.61C665.583 1685.91 646.509 1693.65 627.167 1694.11C606.75 1694.6 586.486 1688.22 567.778 1680.67C538.187 1668.72 510.144 1652.29 485 1632.67C468.26 1619.61 447.199 1603.08 441 1582" stroke="black" stroke-width="3" stroke-linecap="round"/>
<path d="M431 1734C394.398 1734 357.411 1734.15 321.333 1741.22C299.732 1745.45 286.584 1766.79 282.444 1787C280.836 1794.85 279.696 1802.97 280.389 1811C281.436 1823.15 287.892 1834.07 293.778 1844.44C305.792 1865.62 319.596 1885.53 336.333 1903.28C364.812 1933.48 399.468 1953.38 436.333 1971.67C489.67 1998.13 543.448 2020.81 602.222 2031.56C624.676 2035.66 646.989 2036.84 669.778 2037C707.381 2037.26 745.007 2037.13 782.611 2036.94C827.338 2036.73 872.014 2034 916.722 2034C934.571 2034 948.662 2036.66 964.944 2044C973.981 2048.08 981.592 2050.42 986.222 2059.17C991.788 2069.68 995.974 2079.23 997.556 2091.33C998.57 2099.09 999.806 2107.95 998.778 2115.78C997.783 2123.35 991.716 2130.24 987 2136C983.43 2140.36 981.719 2146.85 977 2150" stroke="black" stroke-width="3" stroke-linecap="round"/>
<path d="M978 2151C961.056 2172.02 948.721 2196.07 933.333 2218.22C921.344 2235.48 906.673 2250.91 885.111 2254.22C834.441 2262 782.187 2259.06 731.889 2250.78C691.932 2244.2 652.255 2236.01 612.167 2230.22C576.728 2225.11 541.432 2222.61 505.667 2221.56C449.508 2219.89 393.399 2220.11 337.222 2220C318.71 2219.96 300.227 2219.45 281.722 2219.06C279.345 2219.01 273.627 2218.02 271.222 2219.22C267.367 2221.15 264.814 2237.35 264.111 2239.89C256.593 2267.06 251.347 2294.73 247.667 2322.67C246.473 2331.72 244.111 2342.05 244.111 2351.28C244.111 2352.7 245.605 2351.26 246 2351" stroke="black" stroke-width="3" stroke-linecap="round"/>
<path d="M243 2361C243 2404.54 246.201 2448.01 248.056 2491.5C249.492 2525.17 252.164 2558.35 256.333 2591.78C258.385 2608.22 259 2624.46 259 2641C259 2653.09 259 2665.19 259 2677.28C259 2679.99 259.256 2681.91 261.611 2683.83C268.092 2689.14 277.627 2692.1 285.333 2694.67C310.62 2703.08 336.791 2709.02 362.889 2714.22C457.013 2732.97 552.512 2739.76 648.333 2741.89C744.103 2744.01 839.74 2741.61 935.333 2735.89C962.018 2734.29 988.256 2731.79 1014.67 2727.78C1022.6 2726.57 1028.44 2725.8 1036.11 2728.78C1039.65 2730.15 1041.81 2732.5 1041.94 2727.44C1042.89 2691.62 1041.6 2655.73 1042.33 2619.89C1043.89 2544.42 1050.08 2469.17 1050.83 2393.67C1051.12 2364.91 1051.56 2335.96 1049.89 2307.22C1049.18 2294.97 1047.83 2282.91 1044.22 2271.17C1043.31 2268.19 1042.61 2262.22 1038.67 2262C1030.22 2261.53 1022.52 2260.07 1014.33 2257.78C993.037 2251.83 972.119 2245.32 950.333 2241.22C896.077 2231.02 841.078 2225.73 786.222 2220C743.795 2215.57 701.603 2209.95 659.333 2204.28C641.761 2201.92 621.965 2197.74 604.167 2201.11C597.056 2202.46 590.592 2204.77 583.278 2204.94C569.672 2205.26 556.193 2206.23 542.611 2206.89C512.988 2208.33 484.39 2205.48 454.889 2203.22C416.274 2200.27 377.154 2202 338.444 2202C316.183 2202 293.797 2201.26 271.556 2202.11C257.428 2202.65 249.563 2215.11 248.556 2228.5C246.709 2253.03 245.421 2277 241 2301.33C236.183 2327.84 229.899 2353.99 225.944 2380.67C221.361 2411.59 218.709 2442.83 216.444 2474C212.643 2526.32 209.89 2578.97 210.333 2631.44C210.522 2653.75 211.586 2675.89 214.667 2698C216.701 2712.6 219.928 2727.01 221.611 2741.67C223.813 2760.84 222.599 2780.1 223 2799.33C223.079 2803.12 225.558 2807.07 228.889 2808.89C233.136 2811.21 238.749 2811.19 243.389 2811.44C253.844 2812.01 264.312 2811.94 274.778 2812C315.923 2812.24 357.044 2813.78 398.167 2815.06C480.083 2817.6 562.041 2819.35 643.944 2822.22C717.592 2824.81 790.999 2830.31 864.722 2830.89C903.695 2831.19 943.188 2832.65 982 2828.39C997.955 2826.64 1013.58 2824.14 1029.67 2824C1043.6 2823.87 1057.48 2824.18 1071.33 2822.33C1085.51 2820.44 1098.99 2818.15 1113.33 2818C1119.18 2817.94 1127.03 2819.48 1127.78 2811.89C1128.97 2799.76 1128 2787.1 1128 2774.94C1128 2735.74 1132.95 2697.39 1136.33 2658.39C1141.5 2598.95 1143.13 2539.1 1142.83 2479.44C1142.71 2453.58 1140.73 2429.35 1134.56 2404.28C1132.39 2395.48 1130.26 2386.56 1125.22 2378.89C1123.68 2376.54 1121.59 2374.79 1121 2372C1120.56 2369.89 1117.04 2369.28 1116.22 2366.67C1112.49 2354.72 1111.93 2341.7 1108.78 2329.56C1106.65 2321.37 1102.93 2313.73 1101.61 2305.33C1100.29 2296.9 1100.85 2288.17 1099 2279.83C1096.94 2270.57 1092.74 2268.87 1083.72 2265.83C1060.52 2258.01 1034.43 2257.37 1010.33 2255.11C958.34 2250.24 906.236 2246.74 854.222 2242.11C773.281 2234.9 692.709 2224.78 611.889 2216.44C507.366 2205.67 402.254 2198.17 297.111 2199.22C289.077 2199.3 281.029 2200 273 2200" stroke="black" stroke-width="3" stroke-linecap="round"/>
<path d="M586 2820C562.976 2843.02 533.361 2859.24 504.833 2874.5C499.57 2877.32 494.196 2880.05 488.778 2882.56C481.013 2886.15 472.634 2887.36 464.667 2890.33C450.64 2895.57 453.931 2912.74 453.5 2925.67C451.565 2983.7 453 3041.94 453 3100" stroke="black" stroke-width="3" stroke-linecap="round"/>
<path d="M453 3100C453.998 3115.63 467.807 3130.27 479.167 3139.94C498.6 3156.5 523.009 3163.36 547.111 3170.22C569.414 3176.57 591.969 3183.02 614.833 3187C631.977 3189.98 649.784 3190.96 667.167 3191.89C690.888 3193.15 711.47 3199.81 731.5 3213.17C764.225 3234.98 801.336 3259.56 802.944 3303C803.526 3318.69 803.892 3335.07 801.222 3350.56C799.796 3358.83 797.376 3366.74 796 3375" stroke="black" stroke-width="3" stroke-linecap="round"/>
<path d="M794 3372C779.893 3385.24 760.54 3393.31 742.778 3400.39C730.319 3405.36 717.495 3408.31 704.389 3411C686.483 3414.67 668.69 3419.28 650.667 3422.33C625.7 3426.56 600.38 3426.33 575.167 3427.11C539.142 3428.23 503.213 3438.3 469.278 3449.83C446.534 3457.56 428.287 3472.69 409.333 3487.11C394.702 3498.24 381.345 3511.2 372.944 3527.78C365.167 3543.13 361.109 3560.95 356.778 3577.56C355.189 3583.64 354.692 3589.77 354 3596" stroke="black" stroke-width="3" stroke-linecap="round"/>
<path d="M354 3596C328.818 3618.17 300.73 3637.08 273.556 3656.67C213.76 3699.76 154.983 3743.15 102.333 3795C78.7186 3818.25 55.8293 3842.79 34.6667 3868.33C30.4033 3873.48 25.6324 3878.47 24 3885" stroke="black" stroke-width="3" stroke-linecap="round"/>
<path d="M28 3889C39.9969 3889.59 51.5168 3892.18 63.3333 3894.22C110.823 3902.42 158.69 3903.37 206.778 3904.5C341.932 3907.69 477.34 3913.23 612.556 3910.78C613.222 3910.77 630.26 3911.96 631.778 3908.22C633.241 3904.62 617.01 3884.14 616.444 3883.28C590.839 3844.25 563.853 3806.16 538.444 3767C512.059 3726.33 488.238 3683.8 459.889 3644.44C449.909 3630.59 439.307 3615.88 425.778 3605.22C423.679 3603.57 420.381 3603.54 417.889 3603C412.975 3601.93 408.624 3599.59 404.167 3597.33C390.726 3590.53 375.935 3586.12 363.222 3578C358.868 3575.22 353.429 3570 348 3570" stroke="black" stroke-width="3" stroke-linecap="round"/>
<path d="M19 3314C73.1904 3260.39 132.611 3210.86 202.556 3179.22C203.202 3178.93 230.389 3165.9 231 3168.56C232.752 3176.18 231.442 3186.91 231 3194.17C228.624 3233.18 223.227 3272.03 219.111 3310.89C213.646 3362.49 210.262 3413.81 208 3465.61C207.842 3469.22 207.744 3472.84 207.444 3476.44C207.228 3479.05 207.303 3485.12 205 3483.89C203.252 3482.95 202.293 3480.98 201.111 3479.39C198.251 3475.54 185.606 3456.38 184.444 3454.67C133.942 3380.06 74.5706 3313.57 11 3250" stroke="black" stroke-width="3" stroke-linecap="round"/>
<path d="M951 3516C952.57 3487.12 947.708 3457.81 947.778 3428.83C947.864 3393.2 949.555 3357.55 957.944 3322.78C963.262 3300.74 971.407 3279.2 980.722 3258.56C984.324 3250.58 987.986 3240.02 993.389 3232.94C997.175 3227.98 1002.94 3245.23 1003 3245.39C1024.63 3298.44 1041.96 3353.62 1060.72 3407.72C1067.79 3428.08 1075.12 3448.39 1081.78 3468.89C1084.05 3475.88 1087.26 3484.17 1087 3491.78C1086.78 3498.2 1079.59 3498.67 1074.56 3499.33C1062.81 3500.89 1050.3 3501.49 1038.44 3500.78C1016.23 3499.44 995.657 3489.88 974.333 3484.33C961.97 3481.12 949.662 3477.81 937 3476" stroke="black" stroke-width="3" stroke-linecap="round"/>
<path d="M1062 2206C1062 2168.72 1062 2131.44 1062 2094.17C1062 2080.71 1061.87 2067.24 1062 2053.78C1062.03 2050.52 1062.89 2049.89 1065.89 2052.06C1072.24 2056.64 1077.31 2062.83 1083.61 2067.56C1098.74 2078.9 1116.52 2086.71 1133.56 2094.67C1155.55 2104.95 1177.95 2114.34 1200.89 2122.33C1203.3 2123.17 1212.5 2124.38 1215 2126.22C1216.7 2127.47 1215.69 2132.01 1215.33 2133.44C1211.68 2148.07 1201.49 2161.8 1194.44 2174.83C1179.57 2202.35 1166.86 2231.01 1151.22 2258.11C1147.09 2265.26 1142.35 2275.24 1136.17 2281.11C1134.63 2282.57 1132.17 2281.74 1130.5 2281C1126.97 2279.44 1125.14 2277.93 1121.94 2275.33C1111.45 2266.81 1101.58 2257.39 1091.67 2248.22C1056.31 2215.52 1020.2 2175.83 975 2157" stroke="black" stroke-width="3" stroke-linecap="round"/>
<path d="M15 2184C15 2121.41 2 2059.99 2 1997.33C2 1990.78 2.77892 1990.53 9.55556 1991.11C14.3368 1991.52 18.483 1993.53 22.8889 1995.28C37.183 2000.94 52.1109 2004.42 67.2778 2006.83C104.629 2012.77 142.868 2014.77 180.667 2015C187.82 2015.04 186.809 2016.98 186.944 2024.61C187.542 2058.35 186.047 2092.06 185.444 2125.78C184.944 2153.8 185.593 2181.88 184.556 2209.89C184.318 2216.3 184.822 2225.26 182.556 2231.56C180.076 2238.44 164.971 2235.04 160.333 2233.89C145.434 2230.18 131.403 2222.06 117.167 2216.39C104.7 2211.42 90.7856 2203.65 77.1111 2203.06C66.7351 2202.6 57.2557 2201.35 47 2199.5C33.9556 2197.15 22.6962 2188.12 10 2186" stroke="black" stroke-width="3" stroke-linecap="round"/>
<path d="M960 1266C940.503 1243.47 923.033 1218.72 912.833 1190.5C899.486 1153.57 890.678 1110.66 914.222 1076C921.783 1064.87 932.264 1054.3 944.778 1048.89C961.94 1041.46 979.147 1050.41 994 1059C1017.59 1072.64 1040.14 1089.57 1058.44 1109.83C1066.85 1119.14 1078.01 1132.01 1079.17 1145.28C1080.97 1166.02 1055.77 1183.81 1040.22 1192.44C1029.75 1198.26 1018.84 1203.44 1008.17 1208.89C996.023 1215.08 983.738 1221.76 970.389 1225C953.235 1229.16 941.326 1223.32 927.444 1213.89C919.168 1208.26 909.782 1204.26 904 1196" stroke="black" stroke-width="3" stroke-linecap="round"/>
<path d="M133 1332C85.7542 1302.55 49.1697 1247.94 49.8889 1190.89C50.0348 1179.32 51.8579 1167.64 60.1666 1158.94C71.2062 1147.4 88.8184 1144.04 104.056 1146.39C129.059 1150.24 152.467 1165.81 173 1179.56C197.552 1195.99 224.4 1214.68 240.722 1239.94C254.25 1260.88 251.747 1284.69 230.889 1299C206.833 1315.51 172.891 1327.73 143.5 1326.83C104.647 1325.64 73.1419 1291.07 56.2222 1258.89C47.762 1242.8 40.4047 1223.34 44.5555 1204.89C47.0079 1193.99 53.0916 1187.77 60 1180" stroke="black" stroke-width="3" stroke-linecap="round"/>
<path d="M576 1091C555.748 1043.91 554.732 985.105 595.833 948.722C630.059 918.426 674.238 907.983 716.889 926.278C756.888 943.435 793.496 979.684 800.222 1024.17C803.974 1048.98 789.783 1065.74 768.222 1076.11C740.326 1089.53 708.796 1084.72 681.889 1071.67C664.594 1063.27 647.902 1053.02 631.667 1042.78C616.09 1032.95 598.856 1022.58 586.333 1008.78C576.658 998.115 570.851 985.709 578.556 972C591.883 948.286 619.044 935.707 639 919" stroke="black" stroke-width="3" stroke-linecap="round"/>
<path d="M162 463C145.098 426.256 123.83 391.635 107.611 354.611C102.941 343.951 81.1383 298.236 101.889 290.111C109.065 287.301 118.176 290.204 124.722 292.833C155.627 305.249 184.126 326.101 211.444 344.722C238.264 363.003 264.93 381.936 289.667 403C303.812 415.045 323.803 431.167 328 450.778C331.993 469.436 302.496 470.944 290.944 470.444C257.395 468.994 224.433 449.99 196 433.667C173.836 420.942 152.538 405.511 137.611 384.444C132.1 376.667 126.635 368.052 126.778 358.111C126.926 347.825 132.331 338.281 136 329" stroke="black" stroke-width="3" stroke-linecap="round"/>
<path d="M918 313C912.412 280.51 909.186 247.87 908.444 214.889C908.057 197.642 904.729 169.305 922.444 158.444C945.258 144.459 973.773 155.129 993.778 168.778C1022.21 188.179 1054.58 220.219 1057.33 256.778C1061.42 311.164 990.286 327.975 949.111 317.889C940.376 315.749 930.573 312.417 927.111 303.167C920.942 286.684 925.844 263.978 929.333 247.778C940.819 194.453 963.728 143.943 985 94" stroke="black" stroke-width="3" stroke-linecap="round"/>
<path d="M1006 768C985.26 728.777 961.206 690.76 946 648.889C935.864 620.979 919.904 575.03 959.111 563.056C995.742 551.868 1031.89 584.528 1054.61 608.889C1074.72 630.448 1091.18 655.076 1102.78 682.222C1109.39 697.704 1121.86 727.674 1107.56 743.222C1097.16 754.516 1076.93 756.989 1063 758.778C1040.11 761.717 1016.79 761.473 994 757.667C963.005 752.49 932.732 742.388 903.611 730.833C883.656 722.915 866.109 715.193 847.5 704.667C837.584 699.058 825.204 692.718 819.778 681.611C812.009 665.711 822.756 641.719 829 627.667C840.253 602.34 855.817 578.627 874.611 558.278C887.926 543.861 903.563 531.624 921.556 523.556C931.192 519.234 944.171 515.524 954.667 514.111C980.601 510.621 960.709 515.317 986 514" stroke="black" stroke-width="3" stroke-linecap="round"/>
<path d="M634 3910C641.283 3906.02 648.921 3902.38 656.778 3899.67C666.228 3896.4 674.712 3891.52 684.167 3888.22C703.526 3881.46 723.204 3875.32 743.056 3870.17C764.171 3864.69 785.623 3864.86 807.333 3865.22C837.093 3865.72 873.049 3865.49 900.167 3880.28C922.579 3892.5 945.498 3906.32 963.333 3924.78C977.362 3939.3 977.67 3965.82 977.944 3984.61C978.396 4015.57 967.704 4045.54 945.111 4067.22C925.835 4085.72 901.818 4102.3 877.722 4113.78C866.823 4118.97 853.37 4125 841 4125" stroke="black" stroke-width="3" stroke-linecap="round"/>
<path d="M848 4123C832.111 4122.74 815.735 4122.36 800.056 4119.89C770.236 4115.19 740.352 4109.12 710.222 4106.78C676.718 4104.17 643.068 4105.25 609.556 4103.11C579.856 4101.22 550.229 4096.6 520.444 4100.22C491.585 4103.73 462.127 4108.94 435.778 4121.67C417.696 4130.4 402.314 4141.3 394.667 4160.56C388.072 4177.16 381.012 4193.81 376.778 4211.22C372.487 4228.86 370.799 4245.55 369.556 4263.67C368.588 4277.76 367.265 4294.08 369.278 4308.17C372.967 4333.99 398.797 4350.9 420 4361.5C444.158 4373.58 472.516 4381.82 499 4386.33C522.303 4390.3 544.607 4389.22 566.944 4398C581.585 4403.75 596.585 4413.32 607.333 4424.78C626.782 4445.52 646.426 4464.67 657.944 4491.17C667.314 4512.72 676.632 4533.29 678.222 4557C679.316 4573.31 679 4589.66 679 4606" stroke="black" stroke-width="3" stroke-linecap="round"/>
<path d="M883 4320C888.401 4302.97 898.354 4286.98 907.889 4272C909.8 4269 935.075 4229.5 939 4234.78C942.945 4240.08 942.917 4250.1 943.333 4256.11C944.523 4273.28 943.935 4290.58 944.222 4307.78C944.645 4333.06 945 4358.32 945 4383.61C945 4386.26 946.479 4392.19 942.111 4389.5C938.323 4387.17 935.24 4383.65 932.111 4380.56C924.126 4372.67 916.145 4364.81 908.778 4356.33C896.562 4342.27 883.368 4326.92 873.667 4310.94C868.895 4303.09 864.766 4295.21 859 4288" stroke="black" stroke-width="3" stroke-linecap="round"/>
<path d="M1233 4244C1218.18 4223.29 1205.01 4201.97 1193.83 4179.06C1183.51 4157.89 1178.15 4135.59 1173.67 4112.56C1172.8 4108.12 1171.48 4102.98 1171.67 4098.39C1171.79 4095.5 1179.51 4098.59 1180.78 4099C1193.04 4102.99 1204.72 4109.2 1216.56 4114.28C1225.28 4118.03 1237.23 4121.16 1244.11 4128.22C1251.87 4136.19 1253.68 4149.56 1254.83 4159.89C1257.4 4182.79 1257.96 4206.13 1241 4223.72C1229.51 4235.63 1211.59 4237 1196 4237" stroke="black" stroke-width="3" stroke-linecap="round"/>
<path d="M29 4257C47.4656 4225.43 70.1444 4195.3 96.4444 4169.78C98.6271 4167.66 104.774 4158.87 106.444 4164.89C115.589 4197.86 114 4234.11 114 4267.94C114 4279.5 114.26 4291.14 113.111 4302.67C112.667 4307.12 112.475 4317.72 108.944 4321.5C106.873 4323.72 89.128 4302.76 87.7222 4301.17C74.7454 4286.5 61.7112 4272.06 50 4256.33C39.8206 4242.67 30.5662 4228.38 20 4215" stroke="black" stroke-width="3" stroke-linecap="round"/>
<path d="M679 4602C681.399 4623.59 677.256 4647.71 666.5 4666.83C661.091 4676.45 653.897 4682.83 645.667 4689.94C636.427 4697.94 626.921 4705.48 615.333 4710C590.879 4719.54 565.3 4722.36 539.111 4722.94C520.375 4723.36 501.838 4725 483.056 4725C464.162 4725 444.846 4723.81 426 4725.22C408.954 4726.5 389.715 4732.95 375.5 4742.56C368.174 4747.51 366.123 4755.91 361.833 4763.22C354.888 4775.07 349.982 4785.56 348 4799.22C347.178 4804.89 344.15 4811.46 344 4817C343.828 4823.36 344 4829.75 344 4836.11C344 4850.83 341.603 4867.51 347 4881" stroke="black" stroke-width="3" stroke-linecap="round"/>
<path d="M943 4983C940.785 4970.96 941 4958.94 941 4946.72C941 4927.48 941 4908.24 941 4889C941 4887.57 938.94 4866.11 942.333 4865.44C944.233 4865.07 946.86 4865.71 948.556 4866.11C956.188 4867.91 963.531 4870.1 971.333 4871.22C984.613 4873.13 998.103 4873.19 1011.44 4874.56C1019.25 4875.36 1023.65 4874.85 1023.94 4884.06C1024.8 4910.89 1020.49 4933.87 1009.5 4958.56C1004.82 4969.07 999.336 4983.27 989.556 4990.44C982.516 4995.61 973.753 4990.96 966.833 4987.94C954.292 4982.48 942.762 4974.79 930 4970" stroke="black" stroke-width="3" stroke-linecap="round"/>
<path d="M978 4991C988.012 4991 998.532 4991.99 1008.33 4989.44C1027.98 4984.34 1045.52 4974.14 1063.89 4965.89C1072.22 4962.15 1080.79 4959.17 1089.33 4956C1091.93 4955.03 1094.51 4954.24 1096 4952" stroke="black" stroke-width="3" stroke-linecap="round"/>
<path d="M1093 4953C1092.15 4945.5 1090.51 4938.34 1089.11 4930.94C1086.99 4919.71 1087.43 4907.7 1087.22 4896.33C1086.81 4873.32 1087 4850.29 1087 4827.28C1087 4822.68 1088.31 4817.31 1085 4814" stroke="black" stroke-width="3" stroke-linecap="round"/>
<path d="M1023 4886C1032.07 4871.37 1041.82 4859.77 1054.56 4848.22C1064.64 4839.08 1076.95 4834.02 1089 4828" stroke="black" stroke-width="3" stroke-linecap="round"/>
<path d="M940 4877C961.159 4858.99 986.709 4847.73 1005.89 4827.11C1013.41 4819.03 1018.49 4812.13 1029.56 4809.22C1036.91 4807.29 1045.28 4808.05 1052.78 4808C1059.23 4807.96 1065.56 4807 1072 4807" stroke="black" stroke-width="3" stroke-linecap="round"/>
<path d="M944 4966C966.039 4961.89 986.214 4949.8 1006.44 4940.67C1021.98 4933.66 1037.64 4925.91 1054 4921" stroke="black" stroke-width="3" stroke-linecap="round"/>
<path d="M1041 4932C1034.31 4906.57 1036.84 4878.32 1037.06 4852.28C1037.19 4835.15 1038.05 4818.09 1039 4801" stroke="black" stroke-width="3" stroke-linecap="round"/>
<path d="M1039 4919C1050.28 4919.37 1056.51 4925.08 1064.78 4932.5C1080.7 4946.8 1094.98 4962.76 1111 4977" stroke="black" stroke-width="3" stroke-linecap="round"/>
<path d="M1036 4926C1024.49 4924.37 1015.06 4920.77 1005 4914.78C984.567 4902.61 964.937 4888.49 945.778 4874.44C929.882 4862.79 910.169 4849.75 899 4833" stroke="black" stroke-width="3" stroke-linecap="round"/>
<path d="M1044 4917C1044.04 4922.47 1044.4 4938.83 1044.94 4933.39C1045.41 4928.78 1045 4923.96 1045 4919.33C1045 4916.26 1043.3 4920.23 1042.72 4921.67C1041.49 4924.75 1037.73 4927.49 1034.67 4928.56C1031.66 4929.61 1037.89 4921.4 1038.11 4921.17C1041.32 4917.81 1049.02 4913.99 1041 4918" stroke="black" stroke-width="3" stroke-linecap="round"/>
<path d="M1092 4922C1085.79 4918.15 1078.82 4914.37 1075 4908" stroke="black" stroke-width="3" stroke-linecap="round"/>
<path d="M1113 4941C1106.11 4928.79 1101.89 4915.02 1097.44 4901.78C1095.03 4894.59 1092.96 4887.33 1091.28 4879.94C1090.85 4878.07 1090.13 4872.42 1090 4874.33C1089.67 4879.31 1090.21 4884.35 1090 4889.33C1089.95 4890.53 1089.65 4890.99 1088.67 4889.78C1084.21 4884.31 1081.86 4876.54 1079.67 4870C1077.2 4862.65 1073.11 4839.91 1073.11 4847.67C1073.11 4850.63 1073.82 4853.63 1074.67 4856.44C1075.43 4858.97 1076.66 4865.88 1078 4863.61C1081.24 4858.14 1081.56 4845.08 1082.67 4839.44C1085.08 4827.17 1087.52 4814.8 1091.22 4802.83C1097.02 4784.09 1105.59 4766.16 1119 4752" stroke="black" stroke-width="3" stroke-linecap="round"/>
<path d="M944 4805C943.267 4799.69 942.226 4795.7 945.556 4791.11C952.955 4780.93 959.329 4771.19 965.444 4760.11C968.334 4754.88 977.072 4739.28 973.556 4744.11C966.813 4753.38 959.573 4765.34 950.056 4771.94C949.42 4772.39 948.483 4773.27 947.889 4772.78C944.87 4770.26 946.956 4764.91 947.333 4761C949.179 4741.87 953.257 4722.89 958.778 4704.5C970.091 4666.82 988.578 4632.56 1006.89 4598C1010.09 4591.96 1010.74 4588.35 1008.83 4581.44C1004.46 4565.6 994.853 4550.88 985 4538" stroke="black" stroke-width="3" stroke-linecap="round"/>
<path d="M341 4885C349.713 4890.01 359.14 4893.21 368.667 4896.33C380.763 4900.3 392.015 4904.85 403.556 4910.22C431.092 4923.04 460.802 4931.5 490.556 4937.33C506.033 4940.37 520.008 4943.7 534.5 4949.94C552.577 4957.73 570.423 4963.67 586.889 4974.89C599.014 4983.15 611.813 4992.92 622.056 5003.44C631.127 5012.76 635.709 5026.88 638.333 5039.33C640.487 5049.55 642.395 5060.77 642.778 5071.22C643.363 5087.21 636.144 5102.45 628.611 5116.11C624.119 5124.26 619.429 5133.72 613.556 5141C606.788 5149.39 597.611 5156.65 589.611 5163.83C574.95 5177.01 557.857 5181 538.5 5181C531.01 5181 524.871 5178.83 517.778 5176.78C511.668 5175.01 504.5 5173.95 499 5170.72C489.552 5165.18 481.096 5156.98 472.611 5150.11C461.631 5141.23 450.384 5133.16 441.778 5121.78C432.255 5109.19 427.657 5093.43 424.333 5078.17C421.739 5066.26 423.95 5057.52 432.222 5048.44C445.305 5034.09 457.961 5018.91 474.333 5008.22C480.247 5004.36 485.571 5000.91 492.111 4998C505.158 4992.2 518.384 4991.26 532.333 4989.33C539.59 4988.33 546.457 4985.85 553.778 4985.22C561.754 4984.54 569.627 4984.02 577.5 4982.44C588.885 4980.17 601.502 4977.47 609.5 4969.06C616.759 4961.42 617.95 4952.66 619.5 4942.5C621.579 4928.87 624 4914.83 624 4901.06C624 4893.49 622.636 4888.08 614.556 4886C603.892 4883.26 591.636 4885 582.222 4890.56C575.356 4894.61 571.28 4908.59 569 4916C564.945 4929.18 565 4941.84 565 4955.56C565 4975.45 567.691 5005.62 588 5015.22C599.614 5020.71 613.626 5023.31 625.889 5027.33C643.928 5033.25 654.144 5048.54 661.556 5065.56C668.423 5081.32 672.8 5101.28 664.833 5117.44C656.104 5135.16 640.326 5145.05 622.556 5152.33C618.174 5154.13 611.218 5156.85 606.333 5155.56C596.981 5153.08 587.182 5142.69 582.722 5134.5C574.127 5118.71 573.016 5091.21 579.889 5074.67C585.206 5061.87 602.14 5062.38 612.611 5067.61C637.306 5079.96 615.316 5106.96 596.333 5111.67C584.569 5114.58 567.834 5114.54 558.944 5105.06C554.004 5099.79 554.177 5094.7 561.889 5092.89C570.313 5090.91 580.531 5093.6 587.611 5098.39C593.45 5102.34 584.639 5101.92 582 5101.56C575.985 5100.73 572.168 5099.28 568 5095.11C564.22 5091.33 574.027 5094.61 576 5095" stroke="black" stroke-width="3" stroke-linecap="round"/>
</svg>
